<svg xmlns="http://www.w3.org/2000/svg" height="800" width="1200" viewBox="-20.8347 -8.78465 180.5674 52.7079"><path fill="#8F174F" d="M10.18 29.7012l.561-2.705H3.249v-4.125h6.199l.564-2.928H3.249v-3.793h6.887l.605-2.701H.008v16.252zm93.545-7.087c.607.075 1.433.194 1.843.399.411.207.756.508 1 .805.243.297.418.632.524 1.005.106.373.16.749.16 1.13v.229c0 .67-.122 1.244-.365 1.723-.244.48-.59.867-1.038 1.164-.45.297-1.304.535-1.936.673-.632.138-1.327.205-2.089.205-.639 0-1.324-.05-2.054-.147-.731-.1-1.461-.263-2.191-.492l.508-2.228c.715.198 1.362.317 1.94.401.578.084 1.157.113 1.735.125.543.012.892.008 1.253-.032.332-.037.58-.134.762-.255.184-.122.354-.311.407-.499.047-.158.06-.251.06-.479 0-.35-.098-.597-.272-.832-.175-.236-.537-.365-1.101-.441l-1.695-.233c-1.188-.151-2.408-.476-2.972-1.038-.563-.563-.845-1.309-.845-2.236v-.229c0-1.201.445-2.104 1.336-2.705s2.521-.982 4.18-.982c.821 0 1.563.061 2.226.183s1.19.259 1.586.411l-.543 2.161c-.533-.139-1.075-.238-1.586-.305-.558-.074-1.049-.108-1.627-.108-1.05 0-1.728.06-2.101.278-.373.222-.534.431-.534.918 0 .41.135.639.362.813.229.176.594.316 1.171.393zm-10.827-4.756c-.87-.221-1.719-.277-2.699-.277-.932 0-2.055.116-2.79.337-.734.22-1.359.559-1.872 1.015-.514.457-.909 1.043-1.185 1.758-.277.715-.415 1.566-.415 2.557v.799c0 1.933.391 3.352 1.173 4.256.782.906 2.231 1.488 3.781 1.488 1.611 0 2.619-.441 3.443-1.234v.519c0 1.263-.214 2.017-.743 2.656-.529.639-1.471.918-2.687.864-.85-.037-1.34-.088-1.987-.193-.648-.107-1.252-.249-1.805-.416l-.531 2.418c.742.258 1.505.445 2.287.559.782.114 1.648.149 2.595.172 1.959.045 3.454-.533 4.489-1.598 1.035-1.066 1.495-2.572 1.495-4.52v-10.205c-.71-.38-1.681-.734-2.549-.955m-.563 6.459c0 1.065-.206 1.849-.615 2.351-.411.502-1.066.754-1.964.754-.518 0-.939-.076-1.267-.229-.328-.152-.582-.376-.765-.673-.184-.298-.309-.658-.376-1.085-.069-.426-.104-.92-.104-1.483v-.821c0-1.217.232-2.086.696-2.603.464-.517 1.198-.776 2.203-.776.395 0 .791.039 1.187.114.396.076.73.198 1.004.365v4.086z"/><path fill="none" d="M.008.0012h138.89v35.135H.008z"/><path d="M70.957 29.7012v-11.846h2.892l.182 1.279c.38-.503.871-.888 1.473-1.153.601-.266 1.289-.4 2.065-.4.639 0 1.364.084 1.889.251.525.168.978.423 1.358.765.38.343.677.772.89 1.29.214.518.32 1.126.32 1.826v7.988h-3.15v-7.236c0-.958-.175-1.64-.524-2.043-.351-.403-.873-.603-1.695-.603-.897 0-1.563.469-1.962 1.012-.42.572-.479 1.72-.479 2.755v6.114h-3.259zm-37.543-9.194c-.184-.045-.403-.09-.662-.137-.26-.045-.525-.067-.8-.067-1.004 0-1.73.262-2.18.786-.449.525-.563 1.095-.563 2.175v6.437h-3.414v-11.846h3.049l.183 1.415c.38-.517.853-.909 1.415-1.176.563-.266 1.24-.399 2.031-.399.305 0 .575.019.811.057.236.038.482.103.742.194zm-9.724-2.652v11.847h-2.891l-.182-1.278c-.38.502-.871.887-1.473 1.152-.601.266-1.29.4-2.065.4-.64 0-1.364-.084-1.89-.252-.524-.168-.977-.422-1.357-.765s-.677-.772-.891-1.29c-.213-.517-.319-1.126-.319-1.826v-7.988h3.149v7.237c0 .957.176 1.639.525 2.043.35.402.873.602 1.695.602.897 0 1.563-.469 1.962-1.012.42-.572.479-1.721.479-2.754v-6.116zm43.473-4.782c.637 0 1.124.141 1.409.407.285.267.428.678.428 1.165s-.143.898-.428 1.164c-.285.266-.772.391-1.409.391-.635 0-1.14-.125-1.425-.391-.285-.266-.428-.677-.428-1.164 0-.487.143-.898.428-1.165.285-.266.79-.407 1.425-.407m-1.58 4.782h3.215v11.847h-3.215zm-1.647 0l-3.493 11.847h-2.888l-2.064-7.164-2.038 7.164h-2.994l-3.572-11.847h3.349l1.763 7.353 1.941-6.851h3.15l1.938 6.775 1.743-7.277z" fill="#8F174F"/><path fill="none" d="M0 .0012h138.898v35.135H0z"/><path d="M45.93 21.0152c-.175-.699-.472-1.301-.89-1.803-.419-.502-.979-.898-1.679-1.187-.699-.289-1.835-.428-2.885-.428-1.05 0-2.225.178-2.924.467-.701.289-1.26.685-1.678 1.187-.419.502-.72 1.104-.902 1.803-.182.7-.329 1.41-.329 2.232v.959c0 .82.132 1.566.308 2.266.175.7.472 1.305.891 1.814.418.511.977.91 1.677 1.199.7.289 1.894.467 2.958.467 1.065 0 2.23-.162 2.938-.467.708-.303 1.267-.715 1.678-1.231.411-.516.7-1.122.867-1.815.168-.691.307-1.43.307-2.221v-.959c-.001-.822-.162-1.582-.337-2.283m-2.828 3.413c0 1.233-.193 2.104-.582 2.614-.388.509-1.061.764-2.02.764-.473 0-.875-.053-1.21-.16-.335-.105-.613-.287-.833-.547-.222-.259-.381-.604-.479-1.039-.1-.434-.148-.978-.148-1.632v-1.323c0-1.217.201-2.082.604-2.592.403-.509 1.092-.764 2.066-.764.974 0 1.65.255 2.03.764.382.51.571 1.375.571 2.592v1.323z" fill="#8F174F"/><path d="M118.564.0542c-2.582-.353-3.893 1.084-5.701 2.405l-6.181 4.854-.002.001 1.19.629c.002.002.005.003.008.005 1.548.761 3.701.501 5.167-.585l2.61-2.074.998-.794 4.974-3.952z" fill="#7BCBE2"/><path fill="none" d="M.008.0012h138.89v35.135H.008z"/><path d="M106.682 7.3132l1.188.631c.003.001.005.003.008.004 1.548.762 3.702.502 5.168-.585l2.609-2.073.999-.794z" fill="#089BC9"/><path d="M129.119 3.0522l-3.318-.597s-2.31-.549-4.24.946c0 0-1.425 1.06-2.476 1.88l-2.337 1.851-5.406 4.3-.045.036 1.632.863c1.549.765 3.707.506 5.175-.582l4.834-3.829 3.898-3.07z" fill="#8F174F"/><path d="M119.086 5.2812c1.049-.82 2.474-1.88 2.474-1.88.365-.283.744-.492 1.118-.646l-6.023 1.741-.999.793-2.608 2.074c-1.466 1.087-3.62 1.347-5.168.585 1.32.791 3.37.973 6.458.052l2.109-.628.303-.24zm8.496 1.844c.995-.779 1.746-1.343 2.493-1.678l-6.742 2.162-.396.312-4.834 3.828c-1.468 1.088-3.626 1.348-5.175.582 2.38 1.307 6.045.346 9.127-.75l.184-.149c-.001 0 5.159-4.174 5.343-4.307m7.928 4.343c-2.706-.786-3.518-.289-6.706.67h-.001l-.266.221v-.001l-.003.003.003-.002-.008.005-5.138 4.074c-1.464 1.085-3.752 1.294-5.3.536 1.91.996 3.885.752 7.264-.302l13.542-4.157z" fill="#C8C4C3"/><path d="M136.408 5.8502l-3.582-.652c-2.146-.398-3.161.296-5.245 1.927-.184.134-5.343 4.307-5.343 4.307l-5.792 4.673 1.631.863c1.55.766 3.848.558 5.315-.53l5.138-4.074.007-.005-.003.002z" fill="#8F174F"/><path fill="#B4175E" d="M123.332 7.6092l-12.036 3.859 5.15-4.096 11.455-3.362zm5.472 4.529l-12.357 3.967 5.607-4.525 12.474-4.175z"/></svg>